<svg version="1.1" id="Layer_1" xmlns="http://www.w3.org/2000/svg" xmlns:xlink="http://www.w3.org/1999/xlink" x="0px" y="0px"
	 width="100%" viewBox="0 0 512 512" enable-background="new 0 0 512 512" xml:space="preserve">
<path fill="#000000" opacity="1.000000" stroke="none" 
	d="
M513.000000,58.000000 
	C513.000000,209.621017 513.000000,361.242035 513.000000,512.931519 
	C342.430389,512.931519 171.860733,512.931519 1.000000,512.931519 
	C1.000000,361.642700 1.000000,210.285248 1.468611,58.456841 
	C48.944145,57.985435 95.951080,57.975449 142.957947,58.024017 
	C144.604446,58.025719 146.250351,58.610092 147.569733,58.955246 
	C146.473480,59.639236 145.704041,60.290886 144.964966,60.967709 
	C144.995331,60.992886 144.968185,60.918808 144.598999,60.953003 
	C136.798340,65.975571 129.366867,70.963951 121.967133,75.972900 
	C121.998871,75.993477 121.961128,75.927902 121.603516,75.965103 
	C117.838058,78.714119 114.430199,81.425941 110.678108,84.144516 
	C109.838295,85.072678 109.342728,85.994087 108.889206,86.927139 
	C108.931252,86.938782 108.921631,86.852051 108.573616,86.738129 
	C100.863113,94.126183 93.500626,101.628166 85.979210,109.435745 
	C83.215187,112.891487 80.610085,116.041634 77.673401,119.241943 
	C74.505058,123.830978 71.668289,128.369843 68.883865,132.910873 
	C68.936203,132.913025 68.865891,132.835358 68.514160,132.696472 
	C67.060219,134.677017 65.958015,136.796432 64.915863,138.935883 
	C64.975906,138.955902 64.882286,138.870682 64.526428,138.791534 
	C61.123978,144.447433 58.077374,150.182449 54.995949,155.919067 
	C54.961132,155.920670 54.937233,155.986160 54.651375,156.177673 
	C51.611435,162.866241 48.857357,169.363327 46.002571,176.219284 
	C45.383991,178.085526 44.874962,179.595978 44.346874,181.099731 
	C38.765869,196.991974 34.426033,213.174774 32.664143,230.343994 
	C32.040520,243.592041 31.097713,256.523041 31.421581,269.422241 
	C31.639755,278.111847 33.646984,286.756531 34.827805,295.519562 
	C34.801739,295.617798 34.895031,295.798370 34.842087,296.204742 
	C35.171978,298.096893 35.554810,299.582642 35.961502,301.040283 
	C35.985371,301.012146 35.911873,301.005524 35.852005,301.388489 
	C36.187061,303.197571 36.581993,304.623718 36.992012,306.026245 
	C37.007103,306.002655 36.953236,305.987183 36.899803,306.352570 
	C37.212349,307.834930 37.578331,308.951904 37.966286,310.040771 
	C37.988258,310.012695 37.917538,310.003571 37.864769,310.368347 
	C38.191387,311.844391 38.570774,312.955688 38.970760,314.039246 
	C38.991356,314.011536 38.923134,314.000916 38.872276,314.362061 
	C39.163616,315.615326 39.505817,316.507446 39.835648,317.509094 
	C39.823277,317.618591 39.929447,317.811707 39.893024,318.173828 
	C40.217663,319.381409 40.578728,320.226868 40.962753,321.043579 
	C40.985718,321.014801 40.912441,321.007721 40.861088,321.348969 
	C41.163532,322.498352 41.517330,323.306458 41.907719,324.081482 
	C41.944309,324.048401 41.845795,324.042603 41.804558,324.401245 
	C42.138096,325.627533 42.512871,326.495178 42.948959,327.720612 
	C71.503372,414.125336 149.547012,474.799286 240.606125,481.696533 
	C330.762726,488.525421 417.404785,439.743530 458.064850,358.755646 
	C476.541779,321.952789 485.932953,283.117432 481.209869,241.623566 
	C479.921539,230.304871 479.286377,218.830917 476.898651,207.741043 
	C474.515869,196.674057 470.311157,185.999374 466.971924,174.748535 
	C464.633148,168.768143 462.227661,163.191956 459.744263,157.530365 
	C459.666321,157.444992 459.462494,157.335892 459.337158,157.047211 
	C458.492188,155.469330 457.772491,154.180161 457.048340,152.936844 
	C457.043854,152.982712 457.135895,152.977829 457.081818,152.605621 
	C454.391083,147.779114 451.754425,143.324799 449.070801,138.913361 
	C449.023895,138.956253 449.144257,138.915329 449.276245,138.561508 
	C447.983185,136.416809 446.558167,134.625931 445.098572,132.874344 
	C445.064026,132.913635 445.168549,132.908188 445.349579,132.561661 
	C442.080505,127.809311 438.630371,123.403496 435.080017,118.651810 
	C432.597198,115.473366 430.214569,112.640785 427.787811,109.587433 
	C427.534973,109.127831 427.273682,108.985268 426.986023,108.986549 
	C427.012329,109.034119 427.111481,108.989540 427.052521,108.645401 
	C425.006836,106.179260 423.020111,104.057259 421.019165,101.965141 
	C421.004913,101.995026 421.069244,101.979401 421.005798,101.712646 
	C420.635315,101.273689 420.328278,101.101479 420.013489,100.961639 
	C420.005768,100.994011 420.070404,100.978073 420.010681,100.708832 
	C419.641418,100.269333 419.331879,100.099068 419.014282,99.961250 
	C419.006195,99.993690 419.071045,99.977364 419.009338,99.709457 
	C418.639343,99.270515 418.331055,99.099480 418.014587,98.960976 
	C418.006439,98.993507 418.071320,98.976578 418.012634,98.706802 
	C417.643860,98.267487 417.333801,98.097946 417.015137,97.960907 
	C417.006531,97.993401 417.071411,97.975838 417.012451,97.706009 
	C416.643005,97.267067 416.332550,97.097969 416.014160,96.961304 
	C416.006195,96.993752 416.071014,96.977615 416.009186,96.709511 
	C415.638702,96.270630 415.330048,96.099854 415.013672,95.961510 
	C415.005951,95.993942 415.070770,95.978203 415.009521,95.710541 
	C414.641022,95.270493 414.333771,95.098114 414.017120,94.958817 
	C414.007751,94.991882 414.073853,94.972954 414.021912,94.699570 
	C413.657318,94.258514 413.344696,94.090843 413.020691,93.956940 
	C413.009338,93.990700 413.076752,93.967567 413.023224,93.695679 
	C412.658203,93.256874 412.346741,93.089958 412.020874,92.958725 
	C412.006531,92.994400 412.068817,92.949303 411.973938,92.625069 
	C408.959625,89.853004 406.040161,87.405174 402.998993,84.639923 
	C400.929932,82.856415 398.982605,81.390335 397.019897,79.957870 
	C397.004578,79.991486 397.070190,79.957481 396.966064,79.636993 
	C395.577393,78.519966 394.292847,77.723427 393.006195,76.960922 
	C393.004059,76.994957 393.071716,76.986450 393.001465,76.724113 
	C392.630219,76.282753 392.329254,76.103729 392.016541,75.959625 
	C392.004791,75.994545 392.063110,75.949493 391.962280,75.634605 
	C390.914490,74.852890 389.967499,74.386063 389.013824,73.953964 
	C389.007141,73.988693 389.071838,73.960106 388.959686,73.631256 
	C384.904114,70.841255 380.960693,68.380104 377.012329,65.953629 
	C377.007355,65.988304 377.072510,65.962585 376.972565,65.644730 
	C375.922943,64.857338 374.973267,64.387802 374.014862,63.953957 
	C374.006134,63.989647 374.068390,63.950603 373.956543,63.621597 
	C372.239899,62.501137 370.635101,61.709686 369.017670,60.955460 
	C369.005035,60.992683 369.065216,60.942097 368.965454,60.639557 
	C367.945465,59.865273 367.025177,59.393528 366.271118,58.522118 
	C415.291534,58.081635 464.145752,58.040817 513.000000,58.000000 
z"/>
<path fill="#000000" opacity="1.000000" stroke="none" 
	d="
M1.000000,32.000000 
	C1.000000,21.674543 1.000000,11.349086 1.000000,1.042866 
	C171.666672,1.042866 342.333344,1.042866 513.000000,1.042866 
	C513.000000,11.078049 513.000000,21.070368 512.531372,31.531342 
	C438.244232,32.000000 364.425812,31.998777 290.607361,32.007114 
	C288.778961,32.007320 286.950562,32.113411 284.660461,32.102791 
	C265.756592,32.080147 247.314362,32.124828 228.417511,32.090721 
	C152.308594,32.007950 76.654297,32.003975 1.000000,32.000000 
z"/>
<path fill="#000000" opacity="1.000000" stroke="none" 
	d="
M513.000000,39.000000 
	C513.000000,42.362103 513.000000,45.724201 512.531372,49.546310 
	C476.311798,50.006519 440.560944,49.988743 404.810059,50.014317 
	C386.190399,50.027634 367.570770,50.117397 348.584229,50.089920 
	C345.904297,49.002518 343.624878,47.909946 341.271912,47.009632 
	C334.236145,44.317528 327.171509,41.700703 320.578827,39.029804 
	C385.026337,39.003418 449.013153,39.001709 513.000000,39.000000 
z"/>
<path fill="#000000" opacity="1.000000" stroke="none" 
	d="
M1.000000,50.000000 
	C1.000000,46.637897 1.000000,43.275799 1.468657,39.456848 
	C65.918694,39.018013 129.900070,39.036022 193.775070,39.420456 
	C184.128357,43.248684 174.588043,46.710495 164.581406,50.097008 
	C109.743401,50.014477 55.371700,50.007236 1.000000,50.000000 
z"/>
<path fill="#FFFF77" opacity="1.000000" stroke="none" 
	d="
M513.000000,57.583332 
	C464.145752,58.040817 415.291534,58.081635 365.978180,58.556755 
	C365.324371,59.019871 365.129639,59.048687 364.954773,59.039116 
	C364.974640,59.000732 364.968048,59.086861 364.819214,58.813358 
	C364.084076,58.384186 363.497711,58.228516 362.943085,58.046745 
	C362.974792,58.020645 362.972961,58.102749 362.788879,57.802753 
	C361.927917,57.353264 361.251038,57.203773 360.250549,57.033810 
	C358.267456,56.111084 356.608002,55.208828 355.201782,53.959141 
	C357.408875,53.414558 359.362610,53.046665 361.316620,53.045185 
	C411.877716,53.006901 462.438873,53.006748 513.000000,53.000000 
	C513.000000,54.388889 513.000000,55.777779 513.000000,57.583332 
z"/>
<path fill="#FFFF77" opacity="1.000000" stroke="none" 
	d="
M147.896530,58.922897 
	C146.250351,58.610092 144.604446,58.025719 142.957947,58.024017 
	C95.951080,57.975449 48.944145,57.985435 1.468611,57.992958 
	C1.000000,56.611111 1.000000,55.222221 1.468610,53.424244 
	C52.307312,53.016853 102.677429,53.003788 153.047424,53.074581 
	C155.049377,53.077393 157.050217,53.877689 158.846161,54.541611 
	C156.902939,55.534885 155.165131,56.292961 153.067398,57.045921 
	C152.146545,57.394352 151.585602,57.747898 151.024643,58.061249 
	C151.024612,58.021057 151.088470,58.069878 150.774750,58.074959 
	C149.984009,58.415619 149.506973,58.751194 149.025787,59.044395 
	C149.021652,59.002029 149.065445,59.075062 148.773804,59.032516 
	C148.286957,58.967609 148.091736,58.945251 147.896530,58.922897 
z"/>
<path fill="#FFFF8E" opacity="1.000000" stroke="none" 
	d="
M513.000000,52.625000 
	C462.438873,53.006748 411.877716,53.006901 361.316620,53.045185 
	C359.362610,53.046665 357.408875,53.414558 354.849060,53.865509 
	C352.478821,53.358109 350.714539,52.596901 348.957825,51.558716 
	C348.960663,50.912037 348.955902,50.542332 348.951141,50.172630 
	C367.570770,50.117397 386.190399,50.027634 404.810059,50.014317 
	C440.560944,49.988743 476.311798,50.006519 512.531372,50.003159 
	C513.000000,50.750000 513.000000,51.500000 513.000000,52.625000 
z"/>
<path fill="#FFFF8D" opacity="1.000000" stroke="none" 
	d="
M159.051575,54.306412 
	C157.050217,53.877689 155.049377,53.077393 153.047424,53.074581 
	C102.677429,53.003788 52.307312,53.016853 1.468610,53.007576 
	C1.000000,52.250000 1.000000,51.500000 1.000000,50.375000 
	C55.371700,50.007236 109.743401,50.014477 164.577209,50.263069 
	C165.039337,50.504425 165.049210,50.836456 164.744247,51.008553 
	C162.643387,52.222569 160.847473,53.264488 159.051575,54.306412 
z"/>
<path fill="#FFFFFF" opacity="1.000000" stroke="none" 
	d="
M1.000000,32.333332 
	C76.654297,32.003975 152.308594,32.007950 228.152481,32.372292 
	C224.183105,33.182560 220.024124,33.632462 215.406128,34.047829 
	C143.631393,34.008862 72.315697,34.004433 1.000000,34.000000 
	C1.000000,33.555553 1.000000,33.111111 1.000000,32.333332 
z"/>
<path fill="#FFFFFF" opacity="1.000000" stroke="none" 
	d="
M285.122162,32.170116 
	C286.950562,32.113411 288.778961,32.007320 290.607361,32.007114 
	C364.425812,31.998777 438.244232,32.000000 512.531372,32.000000 
	C513.000000,32.444447 513.000000,32.888889 512.531372,33.666664 
	C440.752747,34.027802 369.442780,34.055603 297.689331,34.063789 
	C293.204590,33.419487 289.163391,32.794800 285.122162,32.170116 
z"/>
<path fill="#FFFF00" opacity="1.000000" stroke="none" 
	d="
M513.000000,36.000000 
	C513.000000,36.444336 513.000000,36.888672 512.531372,37.666641 
	C450.114838,38.000309 388.166992,37.996197 326.219147,38.017773 
	C324.068695,38.018520 321.918335,38.275738 319.426514,38.368927 
	C317.712128,38.548954 316.339142,38.773476 314.987305,38.991112 
	C315.008514,38.984219 315.023163,39.026333 314.868530,38.694004 
	C312.503937,37.591969 310.294006,36.822262 308.546936,36.030373 
	C377.006561,36.005459 445.003296,36.002728 513.000000,36.000000 
z"/>
<path fill="#FFFF00" opacity="1.000000" stroke="none" 
	d="
M1.000000,38.000000 
	C1.000000,37.555664 1.000000,37.111328 1.468657,36.333332 
	C69.929688,36.017120 137.922058,36.034565 205.730347,36.388737 
	C201.774963,37.288071 198.003647,37.850681 193.765717,38.281601 
	C191.136871,38.100060 188.974670,38.006947 186.812454,38.006672 
	C124.874969,37.998737 62.937485,38.000122 1.000000,38.000000 
z"/>
<path fill="#FFFF00" opacity="1.000000" stroke="none" 
	d="
M1.000000,34.250000 
	C72.315697,34.004433 143.631393,34.008862 215.220230,34.378521 
	C213.959976,34.877842 212.426605,35.011932 210.434906,35.084839 
	C140.317734,35.015770 70.658867,35.007885 1.000000,35.000000 
	C1.000000,35.000000 1.000000,34.500000 1.000000,34.250000 
z"/>
<path fill="#FFFF00" opacity="1.000000" stroke="none" 
	d="
M298.132843,34.083405 
	C369.442780,34.055603 440.752747,34.027802 512.531372,34.000000 
	C513.000000,34.000000 513.000000,34.500000 512.531372,34.750000 
	C454.404449,35.000000 396.746216,34.991821 339.087982,35.006683 
	C327.092560,35.009773 315.097168,35.098175 302.714325,35.097267 
	C300.928894,34.725983 299.530853,34.404694 298.132843,34.083405 
z"/>
<path fill="#FFFFFF" opacity="1.000000" stroke="none" 
	d="
M1.000000,35.250000 
	C70.658867,35.007885 140.317734,35.015770 210.191132,35.361687 
	C208.908585,35.817142 207.411514,35.934578 205.914429,36.052010 
	C137.922058,36.034565 69.929688,36.017120 1.468657,35.999836 
	C1.000000,36.000000 1.000000,35.500000 1.000000,35.250000 
z"/>
<path fill="#FFFFFF" opacity="1.000000" stroke="none" 
	d="
M303.101746,35.147266 
	C315.097168,35.098175 327.092560,35.009773 339.087982,35.006683 
	C396.746216,34.991821 454.404449,35.000000 512.531372,35.000000 
	C513.000000,35.000000 513.000000,35.500000 513.000000,35.750000 
	C445.003296,36.002728 377.006561,36.005459 308.164429,35.992146 
	C305.913269,35.699825 304.507507,35.423546 303.101746,35.147266 
z"/>
<path fill="#FFFF55" opacity="1.000000" stroke="none" 
	d="
M319.767914,38.413418 
	C321.918335,38.275738 324.068695,38.018520 326.219147,38.017773 
	C388.166992,37.996197 450.114838,38.000309 512.531372,38.000137 
	C513.000000,38.000000 513.000000,38.500000 513.000000,38.750000 
	C449.013153,39.001709 385.026337,39.003418 320.477844,38.876961 
	C319.916229,38.748795 319.767914,38.413418 319.767914,38.413418 
z"/>
<path fill="#FFFF55" opacity="1.000000" stroke="none" 
	d="
M1.000000,38.250000 
	C62.937485,38.000122 124.874969,37.998737 186.812454,38.006672 
	C188.974670,38.006947 191.136871,38.100060 193.690460,38.447639 
	C194.081848,38.745369 193.881454,39.054035 193.881454,39.054035 
	C129.900070,39.036022 65.918694,39.018013 1.468657,39.000000 
	C1.000000,39.000000 1.000000,38.500000 1.000000,38.250000 
z"/>
<path fill="#E96655" opacity="1.000000" stroke="none" 
	d="
M158.846161,54.541611 
	C160.847473,53.264488 162.643387,52.222569 165.118973,51.078648 
	C166.129547,50.972141 166.502869,51.068089 166.785309,50.948833 
	C191.221970,40.631084 216.555756,34.424152 243.126434,32.660145 
	C258.643463,31.629980 273.932343,32.575855 289.221527,34.562923 
	C297.869354,35.686848 306.425659,37.515244 315.023163,39.026333 
	C315.023163,39.026333 315.008514,38.984219 315.125061,39.339928 
	C326.477844,43.742325 337.714020,47.789013 348.950226,51.835701 
	C350.714539,52.596901 352.478821,53.358109 354.595825,54.212944 
	C356.608002,55.208828 358.267456,56.111084 360.472839,57.305374 
	C361.670166,57.765858 362.321564,57.934303 362.972961,58.102749 
	C362.972961,58.102749 362.974792,58.020645 363.065552,58.343964 
	C363.760193,58.807144 364.364136,58.947002 364.968048,59.086861 
	C364.968048,59.086861 364.974640,59.000732 365.078186,59.375988 
	C366.476257,60.148193 367.770721,60.545147 369.065216,60.942097 
	C369.065216,60.942097 369.005035,60.992683 368.991577,61.323364 
	C370.674866,62.419567 372.371643,63.185085 374.068390,63.950607 
	C374.068390,63.950603 374.006134,63.989647 374.013763,64.311874 
	C375.038422,65.076935 376.055481,65.519760 377.072510,65.962585 
	C377.072510,65.962585 377.007355,65.988304 377.032410,66.303604 
	C381.062256,69.065979 385.067047,71.513046 389.071838,73.960114 
	C389.071838,73.960106 389.007141,73.988693 389.020477,74.319794 
	C390.043579,75.083755 391.053345,75.516624 392.063110,75.949493 
	C392.063110,75.949493 392.004791,75.994545 391.982605,76.275642 
	C392.330841,76.699974 392.701263,76.843208 393.071716,76.986450 
	C393.071716,76.986450 393.004059,76.994957 393.039703,77.312645 
	C394.406952,78.406052 395.738586,79.181763 397.070190,79.957474 
	C397.070190,79.957481 397.004578,79.991486 396.951843,80.294800 
	C398.586365,82.073090 400.273590,83.548080 402.151306,85.296013 
	C405.584167,88.029068 408.826477,90.489182 412.068817,92.949295 
	C412.068817,92.949303 412.006531,92.994400 412.002197,93.272972 
	C412.357513,93.690216 412.717133,93.828896 413.076752,93.967575 
	C413.076752,93.967567 413.009338,93.990700 413.010681,94.268433 
	C413.365997,94.688423 413.719910,94.830688 414.073853,94.972946 
	C414.073853,94.972954 414.007751,94.991882 414.016296,95.265694 
	C414.373474,95.685738 414.722107,95.831970 415.070770,95.978210 
	C415.070770,95.978203 415.005951,95.993942 415.015747,96.267593 
	C415.374054,96.686691 415.722534,96.832153 416.071014,96.977615 
	C416.071014,96.977615 416.006195,96.993752 416.014771,97.268494 
	C416.372681,97.687439 416.722046,97.831642 417.071411,97.975845 
	C417.071411,97.975838 417.006531,97.993401 417.014954,98.268463 
	C417.372681,98.687881 417.722015,98.832230 418.071320,98.976578 
	C418.071320,98.976578 418.006439,98.993507 418.015991,99.267555 
	C418.374054,99.686859 418.722565,99.832108 419.071045,99.977356 
	C419.071045,99.977364 419.006195,99.993690 419.014191,100.268768 
	C419.371582,100.688583 419.721008,100.833328 420.070404,100.978073 
	C420.070404,100.978073 420.005768,100.994011 420.016418,101.268036 
	C420.374451,101.687843 420.721863,101.833618 421.069244,101.979401 
	C421.069244,101.979401 421.004913,101.995026 420.945068,102.314850 
	C422.960663,104.752960 425.036072,106.871246 427.111481,108.989532 
	C427.111481,108.989540 427.012329,109.034119 427.141968,109.124573 
	C427.406738,109.461555 427.593506,109.659279 427.831940,109.808197 
	C430.214569,112.640785 432.597198,115.473366 435.085815,118.989868 
	C438.517395,124.085251 441.842987,128.496719 445.168579,132.908173 
	C445.168549,132.908188 445.064026,132.913635 445.056335,133.231201 
	C446.413818,135.337616 447.779053,137.126465 449.144257,138.915329 
	C449.144257,138.915329 449.023895,138.956253 449.015076,139.278778 
	C451.716156,144.060150 454.426025,148.518997 457.135895,152.977844 
	C457.135895,152.977829 457.043854,152.982712 457.059601,153.304810 
	C457.871063,154.863220 458.666779,156.099564 459.462463,157.335907 
	C459.462494,157.335892 459.666321,157.444992 459.540100,157.876190 
	C461.910980,163.922485 464.408081,169.537598 466.905212,175.152710 
	C470.311157,185.999374 474.515869,196.674057 476.898651,207.741043 
	C479.286377,218.830917 479.921539,230.304871 481.209869,241.623566 
	C485.932953,283.117432 476.541779,321.952789 458.064850,358.755646 
	C417.404785,439.743530 330.762726,488.525421 240.606125,481.696533 
	C149.547012,474.799286 71.503372,414.125336 43.003242,327.341675 
	C42.612743,325.750793 42.229271,324.896698 41.845795,324.042603 
	C41.845795,324.042603 41.944309,324.048401 41.973202,323.732117 
	C41.638878,322.613129 41.275658,321.810425 40.912441,321.007721 
	C40.912441,321.007721 40.985718,321.014801 41.013420,320.684021 
	C40.670563,319.506073 40.300007,318.658875 39.929451,317.811707 
	C39.929447,317.811707 39.823277,317.618591 39.902702,317.126770 
	C39.629128,315.756927 39.276131,314.878937 38.923134,314.000916 
	C38.923134,314.000916 38.991356,314.011536 39.023186,313.667480 
	C38.675858,312.216797 38.296696,311.110168 37.917538,310.003571 
	C37.917538,310.003571 37.988258,310.012695 38.020523,309.668396 
	C37.686268,308.211792 37.319748,307.099487 36.953232,305.987183 
	C36.953236,305.987183 37.007103,306.002655 37.046326,305.636017 
	C36.694321,303.848083 36.303097,302.426819 35.911873,301.005524 
	C35.911873,301.005524 35.985371,301.012146 36.021347,300.641907 
	C35.669895,298.780548 35.282463,297.289459 34.895027,295.798370 
	C34.895031,295.798370 34.801739,295.617798 34.900898,295.047791 
	C34.012756,279.941498 32.792011,265.415680 32.139965,250.864380 
	C31.829641,243.939072 32.602127,236.965271 32.884109,230.013428 
	C34.426033,213.174774 38.765869,196.991974 44.346874,181.099731 
	C44.874962,179.595978 45.383991,178.085526 46.343040,176.176620 
	C49.501884,169.178772 52.219555,162.582458 54.937229,155.986160 
	C54.937233,155.986160 54.961132,155.920670 55.322189,155.846466 
	C58.749592,150.138412 61.815937,144.504547 64.882286,138.870682 
	C64.882286,138.870682 64.975906,138.955902 65.262238,138.889099 
	C66.654343,136.826660 67.760117,134.831009 68.865891,132.835358 
	C68.865891,132.835358 68.936203,132.913025 69.227730,132.855606 
	C72.347832,128.262726 75.176407,123.727249 78.004990,119.191780 
	C80.610085,116.041634 83.215187,112.891487 86.327530,109.418655 
	C94.197060,101.681328 101.559341,94.266693 108.921631,86.852051 
	C108.921631,86.852051 108.931252,86.938782 109.214096,86.942879 
	C110.338142,86.304985 111.179352,85.663002 112.323044,84.876602 
	C115.737404,81.797432 118.849266,78.862671 121.961128,75.927902 
	C121.961128,75.927902 121.998871,75.993477 122.313026,76.128220 
	C128.548996,72.456223 134.503693,68.699089 140.371704,64.811157 
	C142.033859,63.709881 143.443008,62.226791 144.968185,60.918808 
	C144.968185,60.918808 144.995331,60.992886 145.292358,61.138123 
	C146.748077,60.547264 147.906754,59.811161 149.065445,59.075062 
	C149.065445,59.075062 149.021652,59.002029 149.346878,59.081306 
	C150.144226,58.797012 150.616348,58.433445 151.088470,58.069878 
	C151.088470,58.069878 151.024612,58.021057 151.370392,58.069057 
	C152.286545,57.761715 152.856918,57.406376 153.427307,57.051033 
	C155.165131,56.292961 156.902939,55.534885 158.846161,54.541611 
M224.582642,53.007740 
	C204.581909,56.064972 185.471695,62.064442 167.315750,70.922928 
	C143.961166,82.317902 123.372498,97.431450 105.698174,116.633774 
	C90.125099,133.553192 77.649689,152.325027 68.237083,173.299530 
	C52.919659,207.431900 48.138672,243.044312 51.903923,280.083740 
	C54.333183,303.980804 61.048637,326.589600 71.597229,348.062012 
	C82.759705,370.783905 97.686310,390.690491 116.295471,407.982544 
	C133.905594,424.346313 153.577637,437.276978 175.580704,446.861206 
	C195.693436,455.621979 216.719940,461.121094 238.471863,462.709015 
	C252.425323,463.727661 266.593597,462.882721 280.596680,461.895874 
	C303.019043,460.315735 324.230835,453.636902 344.492126,444.145172 
	C368.811462,432.752441 390.060120,417.134460 408.345703,397.327179 
	C424.531769,379.794037 437.363464,360.249268 446.871582,338.397919 
	C455.624725,318.281677 461.125732,297.256287 462.710266,275.503662 
	C463.726654,261.549866 462.883759,247.381683 461.894684,233.378799 
	C460.310883,210.956787 453.631409,189.745148 444.137543,169.483994 
	C430.900940,141.235291 412.089691,117.263733 387.974762,97.390755 
	C364.505615,78.049965 338.074677,64.642212 308.704376,56.992252 
	C288.542175,51.740681 268.021210,49.726826 247.219513,51.012970 
	C239.954346,51.462170 232.714233,52.316414 224.582642,53.007740 
z"/>
<path fill="#7B7755" opacity="1.000000" stroke="none" 
	d="
M32.664143,230.343994 
	C32.602127,236.965271 31.829641,243.939072 32.139965,250.864380 
	C32.792011,265.415680 34.012756,279.941498 34.926964,294.949524 
	C33.646984,286.756531 31.639755,278.111847 31.421581,269.422241 
	C31.097713,256.523041 32.040520,243.592041 32.664143,230.343994 
z"/>
<path fill="#EDE09E" opacity="1.000000" stroke="none" 
	d="
M108.573616,86.738129 
	C101.559341,94.266693 94.197060,101.681328 86.486450,109.113060 
	C93.500626,101.628166 100.863113,94.126183 108.573616,86.738129 
z"/>
<path fill="#FBF4A6" opacity="1.000000" stroke="none" 
	d="
M144.598999,60.953003 
	C143.443008,62.226791 142.033859,63.709881 140.371704,64.811157 
	C134.503693,68.699089 128.548996,72.456223 122.281288,76.107635 
	C129.366867,70.963951 136.798340,65.975571 144.598999,60.953003 
z"/>
<path fill="#BBAF7C" opacity="1.000000" stroke="none" 
	d="
M54.651367,156.177673 
	C52.219555,162.582458 49.501884,169.178772 46.443745,175.817734 
	C48.857357,169.363327 51.611435,162.866241 54.651367,156.177673 
z"/>
<path fill="#CFC380" opacity="1.000000" stroke="none" 
	d="
M64.526428,138.791534 
	C61.815937,144.504547 58.749592,150.138412 55.357006,155.844879 
	C58.077374,150.182449 61.123978,144.447433 64.526428,138.791534 
z"/>
<path fill="#BAAD7A" opacity="1.000000" stroke="none" 
	d="
M466.971893,174.748535 
	C464.408081,169.537598 461.910980,163.922485 459.618042,157.961563 
	C462.227661,163.191956 464.633148,168.768143 466.971893,174.748535 
z"/>
<path fill="#CFC380" opacity="1.000000" stroke="none" 
	d="
M445.349609,132.561646 
	C441.842987,128.496719 438.517395,124.085251 435.186035,119.335732 
	C438.630371,123.403496 442.080505,127.809311 445.349609,132.561646 
z"/>
<path fill="#CFC380" opacity="1.000000" stroke="none" 
	d="
M77.673409,119.241943 
	C75.176407,123.727249 72.347832,128.262726 69.175385,132.853455 
	C71.668289,128.369843 74.505058,123.830978 77.673409,119.241943 
z"/>
<path fill="#CFC380" opacity="1.000000" stroke="none" 
	d="
M457.081818,152.605637 
	C454.426025,148.518997 451.716156,144.060150 449.062012,139.235901 
	C451.754425,143.324799 454.391083,147.779114 457.081818,152.605637 
z"/>
<path fill="#FBF4A6" opacity="1.000000" stroke="none" 
	d="
M121.603516,75.965103 
	C118.849266,78.862671 115.737404,81.797432 112.112320,84.783508 
	C111.319695,84.674599 111.127441,84.442245 111.022354,84.137772 
	C114.430199,81.425941 117.838058,78.714119 121.603516,75.965103 
z"/>
<path fill="#FBF3A4" opacity="1.000000" stroke="none" 
	d="
M388.959686,73.631264 
	C385.067047,71.513046 381.062256,69.065979 377.037384,66.268936 
	C380.960693,68.380104 384.904114,70.841255 388.959686,73.631264 
z"/>
<path fill="#EDDE9B" opacity="1.000000" stroke="none" 
	d="
M411.973938,92.625061 
	C408.826477,90.489182 405.584167,88.029068 402.441101,85.275703 
	C402.733826,84.974091 402.927246,84.965721 403.120697,84.957352 
	C406.040161,87.405174 408.959625,89.853004 411.973938,92.625061 
z"/>
<path fill="#EDDE9B" opacity="1.000000" stroke="none" 
	d="
M427.052521,108.645401 
	C425.036072,106.871246 422.960663,104.752960 420.959320,102.284966 
	C423.020111,104.057259 425.006836,106.179260 427.052521,108.645401 
z"/>
<path fill="#CFC380" opacity="1.000000" stroke="none" 
	d="
M68.514160,132.696472 
	C67.760117,134.831009 66.654343,136.826660 65.202194,138.869080 
	C65.958015,136.796432 67.060219,134.677017 68.514160,132.696472 
z"/>
<path fill="#CFC380" opacity="1.000000" stroke="none" 
	d="
M449.276245,138.561508 
	C447.779053,137.126465 446.413818,135.337616 445.090881,133.191895 
	C446.558167,134.625931 447.983185,136.416809 449.276245,138.561508 
z"/>
<path fill="#FBF3A4" opacity="1.000000" stroke="none" 
	d="
M402.998993,84.639915 
	C402.927246,84.965721 402.733826,84.974091 402.250610,85.002762 
	C400.273590,83.548080 398.586365,82.073090 396.967194,80.261185 
	C398.982605,81.390335 400.929932,82.856415 402.998993,84.639915 
z"/>
<path fill="#FBF3A4" opacity="1.000000" stroke="none" 
	d="
M373.956543,63.621597 
	C372.371643,63.185085 370.674866,62.419567 369.004211,61.286140 
	C370.635101,61.709686 372.239899,62.501137 373.956543,63.621597 
z"/>
<path fill="#FBF4A6" opacity="1.000000" stroke="none" 
	d="
M148.773804,59.032516 
	C147.906754,59.811161 146.748077,60.547264 145.261993,61.112946 
	C145.704041,60.290886 146.473480,59.639236 147.569733,58.955246 
	C148.091736,58.945251 148.286957,58.967609 148.773804,59.032516 
z"/>
<path fill="#FBF3A4" opacity="1.000000" stroke="none" 
	d="
M396.966064,79.636993 
	C395.738586,79.181763 394.406952,78.406052 393.041840,77.278610 
	C394.292847,77.723427 395.577393,78.519966 396.966064,79.636993 
z"/>
<path fill="#BAAD7A" opacity="1.000000" stroke="none" 
	d="
M459.337158,157.047211 
	C458.666779,156.099564 457.871063,154.863220 457.064087,153.258942 
	C457.772491,154.180161 458.492188,155.469330 459.337158,157.047211 
z"/>
<path fill="#FBF3A4" opacity="1.000000" stroke="none" 
	d="
M368.965454,60.639557 
	C367.770721,60.545147 366.476257,60.148193 365.058319,59.414371 
	C365.129639,59.048687 365.324371,59.019871 365.812012,58.956421 
	C367.025177,59.393528 367.945465,59.865273 368.965454,60.639557 
z"/>
<path fill="#EDE09E" opacity="1.000000" stroke="none" 
	d="
M110.678116,84.144516 
	C111.127441,84.442245 111.319695,84.674599 111.809837,84.927925 
	C111.179352,85.663002 110.338142,86.304985 109.172043,86.931244 
	C109.342728,85.994087 109.838295,85.072678 110.678116,84.144516 
z"/>
<path fill="#7B7755" opacity="1.000000" stroke="none" 
	d="
M34.842087,296.204742 
	C35.282463,297.289459 35.669895,298.780548 35.997482,300.670044 
	C35.554810,299.582642 35.171978,298.096893 34.842087,296.204742 
z"/>
<path fill="#7B7755" opacity="1.000000" stroke="none" 
	d="
M35.852005,301.388489 
	C36.303097,302.426819 36.694321,303.848083 37.031235,305.659607 
	C36.581993,304.623718 36.187061,303.197571 35.852005,301.388489 
z"/>
<path fill="#FBF3A4" opacity="1.000000" stroke="none" 
	d="
M391.962280,75.634605 
	C391.053345,75.516624 390.043579,75.083755 389.027161,74.285057 
	C389.967499,74.386063 390.914490,74.852890 391.962280,75.634605 
z"/>
<path fill="#7B7755" opacity="1.000000" stroke="none" 
	d="
M36.899803,306.352570 
	C37.319748,307.099487 37.686268,308.211792 37.998550,309.696472 
	C37.578331,308.951904 37.212349,307.834930 36.899803,306.352570 
z"/>
<path fill="#FBF3A4" opacity="1.000000" stroke="none" 
	d="
M376.972565,65.644730 
	C376.055481,65.519760 375.038422,65.076935 374.022491,64.276184 
	C374.973267,64.387802 375.922943,64.857338 376.972565,65.644730 
z"/>
<path fill="#7B7755" opacity="1.000000" stroke="none" 
	d="
M37.864769,310.368347 
	C38.296696,311.110168 38.675858,312.216797 39.002594,313.695190 
	C38.570774,312.955688 38.191387,311.844391 37.864769,310.368347 
z"/>
<path fill="#7B7755" opacity="1.000000" stroke="none" 
	d="
M38.872276,314.362061 
	C39.276131,314.878937 39.629128,315.756927 39.915070,317.017273 
	C39.505817,316.507446 39.163616,315.615326 38.872276,314.362061 
z"/>
<path fill="#7B7755" opacity="1.000000" stroke="none" 
	d="
M39.893028,318.173828 
	C40.300007,318.658875 40.670563,319.506073 40.990456,320.712799 
	C40.578728,320.226868 40.217663,319.381409 39.893028,318.173828 
z"/>
<path fill="#7B7755" opacity="1.000000" stroke="none" 
	d="
M40.861088,321.348969 
	C41.275658,321.810425 41.638878,322.613129 41.936611,323.765198 
	C41.517330,323.306458 41.163532,322.498352 40.861088,321.348969 
z"/>
<path fill="#7B7755" opacity="1.000000" stroke="none" 
	d="
M41.804558,324.401245 
	C42.229271,324.896698 42.612743,325.750793 42.941933,326.983826 
	C42.512871,326.495178 42.138096,325.627533 41.804558,324.401245 
z"/>
<path fill="#FBF3A4" opacity="1.000000" stroke="none" 
	d="
M393.001465,76.724113 
	C392.701263,76.843208 392.330841,76.699974 391.994324,76.240723 
	C392.329254,76.103729 392.630219,76.282753 393.001465,76.724113 
z"/>
<path fill="#EDDE9B" opacity="1.000000" stroke="none" 
	d="
M419.009338,99.709457 
	C418.722565,99.832108 418.374054,99.686859 418.024170,99.235023 
	C418.331055,99.099480 418.639343,99.270515 419.009338,99.709457 
z"/>
<path fill="#EDDE9B" opacity="1.000000" stroke="none" 
	d="
M413.023224,93.695679 
	C412.717133,93.828896 412.357513,93.690216 412.016571,93.237289 
	C412.346741,93.089958 412.658203,93.256874 413.023224,93.695679 
z"/>
<path fill="#EDDE9B" opacity="1.000000" stroke="none" 
	d="
M414.021912,94.699570 
	C413.719910,94.830688 413.365997,94.688423 413.022064,94.234665 
	C413.344696,94.090843 413.657318,94.258514 414.021912,94.699570 
z"/>
<path fill="#EDDE9B" opacity="1.000000" stroke="none" 
	d="
M415.009521,95.710541 
	C414.722107,95.831970 414.373474,95.685738 414.025635,95.232620 
	C414.333771,95.098114 414.641022,95.270493 415.009521,95.710541 
z"/>
<path fill="#EDDE9B" opacity="1.000000" stroke="none" 
	d="
M416.009186,96.709511 
	C415.722534,96.832153 415.374054,96.686691 415.023499,96.235153 
	C415.330048,96.099854 415.638702,96.270630 416.009186,96.709511 
z"/>
<path fill="#EDDE9B" opacity="1.000000" stroke="none" 
	d="
M417.012451,97.706009 
	C416.722046,97.831642 416.372681,97.687439 416.022705,97.236053 
	C416.332550,97.097969 416.643005,97.267067 417.012451,97.706009 
z"/>
<path fill="#EDDE9B" opacity="1.000000" stroke="none" 
	d="
M427.787811,109.587433 
	C427.593506,109.659279 427.406738,109.461555 427.115662,109.077003 
	C427.273682,108.985268 427.534973,109.127831 427.787811,109.587433 
z"/>
<path fill="#EDDE9B" opacity="1.000000" stroke="none" 
	d="
M418.012634,98.706802 
	C417.722015,98.832230 417.372681,98.687881 417.023560,98.235970 
	C417.333801,98.097946 417.643860,98.267487 418.012634,98.706802 
z"/>
<path fill="#EDDE9B" opacity="1.000000" stroke="none" 
	d="
M421.005798,101.712646 
	C420.721863,101.833618 420.374451,101.687843 420.024139,101.235672 
	C420.328278,101.101479 420.635315,101.273689 421.005798,101.712646 
z"/>
<path fill="#EDDE9B" opacity="1.000000" stroke="none" 
	d="
M420.010681,100.708832 
	C419.721008,100.833328 419.371582,100.688583 419.022278,100.236328 
	C419.331879,100.099068 419.641418,100.269333 420.010681,100.708832 
z"/>
<path fill="#FEF9AF" opacity="1.000000" stroke="none" 
	d="
M314.868530,38.694004 
	C306.425659,37.515244 297.869354,35.686848 289.221527,34.562923 
	C273.932343,32.575855 258.643463,31.629980 243.126434,32.660145 
	C216.555756,34.424152 191.221970,40.631084 166.785309,50.948833 
	C166.502869,51.068089 166.129547,50.972141 165.423935,50.906555 
	C165.049210,50.836456 165.039337,50.504425 165.043518,50.338364 
	C174.588043,46.710495 184.128357,43.248684 193.775070,39.420456 
	C193.881454,39.054035 194.081848,38.745369 194.157104,38.579330 
	C198.003647,37.850681 201.774963,37.288071 205.730347,36.388741 
	C207.411514,35.934578 208.908585,35.817142 210.649445,35.422867 
	C212.426605,35.011932 213.959976,34.877842 215.679260,34.413059 
	C220.024124,33.632462 224.183105,33.182560 228.607117,32.451084 
	C247.314362,32.124828 265.756592,32.080147 284.660461,32.102791 
	C289.163391,32.794800 293.204590,33.419487 297.689331,34.063789 
	C299.530853,34.404694 300.928894,34.725983 302.714325,35.097267 
	C304.507507,35.423546 305.913269,35.699825 307.701538,36.014328 
	C310.294006,36.822262 312.503937,37.591969 314.868530,38.694004 
z"/>
<path fill="#FEF9AF" opacity="1.000000" stroke="none" 
	d="
M348.957825,51.558720 
	C337.714020,47.789013 326.477844,43.742325 315.103882,39.346821 
	C316.339142,38.773476 317.712128,38.548954 319.426514,38.368927 
	C319.767914,38.413418 319.916229,38.748795 320.017212,38.901638 
	C327.171509,41.700703 334.236145,44.317528 341.271912,47.009632 
	C343.624878,47.909946 345.904297,49.002518 348.584229,50.089916 
	C348.955902,50.542332 348.960663,50.912037 348.957825,51.558720 
z"/>
<path fill="#FBF3A4" opacity="1.000000" stroke="none" 
	d="
M364.819214,58.813362 
	C364.364136,58.947002 363.760193,58.807144 363.033813,58.370064 
	C363.497711,58.228516 364.084076,58.384186 364.819214,58.813362 
z"/>
<path fill="#FBF3A4" opacity="1.000000" stroke="none" 
	d="
M362.788879,57.802753 
	C362.321564,57.934303 361.670166,57.765858 360.796478,57.325844 
	C361.251038,57.203773 361.927917,57.353264 362.788879,57.802753 
z"/>
<path fill="#FBF4A6" opacity="1.000000" stroke="none" 
	d="
M153.067398,57.045921 
	C152.856918,57.406376 152.286545,57.761715 151.370422,58.109253 
	C151.585602,57.747898 152.146545,57.394352 153.067398,57.045921 
z"/>
<path fill="#FBF4A6" opacity="1.000000" stroke="none" 
	d="
M150.774750,58.074959 
	C150.616348,58.433445 150.144226,58.797012 149.351013,59.123672 
	C149.506973,58.751194 149.984009,58.415619 150.774750,58.074959 
z"/>
<path fill="#E73F2B" opacity="1.000000" stroke="none" 
	d="
M225.022659,52.996712 
	C232.714233,52.316414 239.954346,51.462170 247.219513,51.012970 
	C268.021210,49.726826 288.542175,51.740681 308.704376,56.992252 
	C338.074677,64.642212 364.505615,78.049965 387.974762,97.390755 
	C412.089691,117.263733 430.900940,141.235291 444.137543,169.483994 
	C453.631409,189.745148 460.310883,210.956787 461.894684,233.378799 
	C462.883759,247.381683 463.726654,261.549866 462.710266,275.503662 
	C461.125732,297.256287 455.624725,318.281677 446.871582,338.397919 
	C437.363464,360.249268 424.531769,379.794037 408.345703,397.327179 
	C390.060120,417.134460 368.811462,432.752441 344.492126,444.145172 
	C324.230835,453.636902 303.019043,460.315735 280.596680,461.895874 
	C266.593597,462.882721 252.425323,463.727661 238.471863,462.709015 
	C216.719940,461.121094 195.693436,455.621979 175.580704,446.861206 
	C153.577637,437.276978 133.905594,424.346313 116.295471,407.982544 
	C97.686310,390.690491 82.759705,370.783905 71.597229,348.062012 
	C61.048637,326.589600 54.333183,303.980804 51.903923,280.083740 
	C48.138672,243.044312 52.919659,207.431900 68.237083,173.299530 
	C77.649689,152.325027 90.125099,133.553192 105.698174,116.633774 
	C123.372498,97.431450 143.961166,82.317902 167.315750,70.922928 
	C185.471695,62.064442 204.581909,56.064972 225.022659,52.996712 
M226.346237,185.858597 
	C200.076431,206.322800 173.830521,226.817871 147.499527,247.203033 
	C144.895386,249.219116 143.815018,251.305099 143.824478,254.674301 
	C143.945236,297.648773 143.901001,340.623718 143.915894,383.598541 
	C143.916443,385.181091 144.092545,386.763550 144.183762,388.294617 
	C219.895798,388.294617 295.103027,388.294617 370.508331,388.294617 
	C370.616241,387.003937 370.767334,386.038208 370.767578,385.072449 
	C370.779236,341.264771 370.815094,297.456970 370.651337,253.649902 
	C370.644196,251.744095 369.262665,249.242584 367.723969,248.032166 
	C337.625427,224.355270 307.410767,200.825928 277.213562,177.274490 
	C270.566254,172.090134 263.894806,166.936691 257.223907,161.760788 
	C246.847061,169.854172 236.874817,177.631973 226.346237,185.858597 
M259.875519,127.502060 
	C257.068390,124.314697 255.203934,127.090744 253.253860,128.627243 
	C214.780762,158.940720 176.325226,189.276489 137.867294,219.609238 
	C131.645264,224.516739 125.428925,229.431412 119.019882,234.492874 
	C124.076042,240.657562 128.795685,246.411942 133.720688,252.416718 
	C175.066742,220.282867 216.067673,188.417236 257.261536,156.401672 
	C298.098389,188.222061 338.672333,219.837616 379.566498,251.702682 
	C384.735840,245.809357 389.720978,240.126007 394.991669,234.117096 
	C349.860413,198.515198 305.147156,163.243027 259.875519,127.502060 
M328.807861,176.685501 
	C338.987610,184.489914 349.167328,192.294327 359.709442,200.376556 
	C359.709442,183.704514 359.709442,167.976578 359.709442,152.103729 
	C346.075836,152.103729 332.711792,152.103729 318.906128,152.103729 
	C318.906128,153.989914 319.152679,155.656738 318.865204,157.225723 
	C317.269806,165.933472 320.249939,172.302811 328.807861,176.685501 
z"/>
<path fill="#FFFEFE" opacity="1.000000" stroke="none" 
	d="
M226.624390,185.634186 
	C236.874817,177.631973 246.847061,169.854172 257.223907,161.760788 
	C263.894806,166.936691 270.566254,172.090134 277.213562,177.274490 
	C307.410767,200.825928 337.625427,224.355270 367.723969,248.032166 
	C369.262665,249.242584 370.644196,251.744095 370.651337,253.649902 
	C370.815094,297.456970 370.779236,341.264771 370.767578,385.072449 
	C370.767334,386.038208 370.616241,387.003937 370.508331,388.294617 
	C295.103027,388.294617 219.895798,388.294617 144.183762,388.294617 
	C144.092545,386.763550 143.916443,385.181091 143.915894,383.598541 
	C143.901001,340.623718 143.945236,297.648773 143.824478,254.674301 
	C143.815018,251.305099 144.895386,249.219116 147.499527,247.203033 
	C173.830521,226.817871 200.076431,206.322800 226.624390,185.634186 
M272.497772,291.052643 
	C256.735077,291.052643 240.972366,291.052643 225.248322,291.052643 
	C225.248322,322.375580 225.248322,353.076874 225.248322,383.615784 
	C246.665497,383.615784 267.712769,383.615784 288.653198,383.615784 
	C288.653198,352.637665 288.653198,322.056396 288.653198,291.052643 
	C283.418671,291.052643 278.457336,291.052643 272.497772,291.052643 
M255.171280,228.425781 
	C255.171280,222.696121 255.171280,216.966461 255.171280,211.264130 
	C246.574524,211.264130 238.690735,211.264130 230.645462,211.264130 
	C230.645462,218.938034 230.645462,226.323227 230.645462,233.927307 
	C238.823807,233.927307 246.714340,233.927307 254.931107,233.927307 
	C255.017502,232.301804 255.094391,230.855286 255.171280,228.425781 
M259.283478,233.125595 
	C267.173859,233.594986 275.064270,234.064377 282.777313,234.523224 
	C282.777313,225.941483 282.777313,218.569687 282.777313,211.399979 
	C274.709564,211.399979 267.025085,211.399979 259.176880,211.399979 
	C259.176880,218.606400 259.176880,225.395096 259.283478,233.125595 
M250.344574,238.109680 
	C243.792068,238.109680 237.239563,238.109680 230.639374,238.109680 
	C230.639374,245.599152 230.639374,252.319458 230.639374,259.233154 
	C238.929764,259.233154 246.907959,259.233154 255.186630,259.233154 
	C255.186630,253.035690 255.030792,247.238342 255.248505,241.455048 
	C255.367828,238.285049 253.790741,237.840546 250.344574,238.109680 
M259.138336,249.485382 
	C259.138336,252.732269 259.138336,255.979172 259.138336,259.252869 
	C267.510345,259.252869 275.186615,259.252869 282.926453,259.252869 
	C282.926453,252.129669 282.926453,245.393539 282.926453,238.404907 
	C274.998077,238.404907 267.316742,238.404907 259.138397,238.404907 
	C259.138397,241.955490 259.138397,245.230942 259.138336,249.485382 
z"/>
<path fill="#FFFDFD" opacity="1.000000" stroke="none" 
	d="
M260.154694,127.736465 
	C305.147156,163.243027 349.860413,198.515198 394.991669,234.117096 
	C389.720978,240.126007 384.735840,245.809357 379.566498,251.702682 
	C338.672333,219.837616 298.098389,188.222061 257.261536,156.401672 
	C216.067673,188.417236 175.066742,220.282867 133.720688,252.416718 
	C128.795685,246.411942 124.076042,240.657562 119.019882,234.492874 
	C125.428925,229.431412 131.645264,224.516739 137.867294,219.609238 
	C176.325226,189.276489 214.780762,158.940720 253.253860,128.627243 
	C255.203934,127.090744 257.068390,124.314697 260.154694,127.736465 
z"/>
<path fill="#FFFEFE" opacity="1.000000" stroke="none" 
	d="
M328.529938,176.458603 
	C320.249939,172.302811 317.269806,165.933472 318.865204,157.225723 
	C319.152679,155.656738 318.906128,153.989914 318.906128,152.103729 
	C332.711792,152.103729 346.075836,152.103729 359.709442,152.103729 
	C359.709442,167.976578 359.709442,183.704514 359.709442,200.376556 
	C349.167328,192.294327 338.987610,184.489914 328.529938,176.458603 
z"/>
<path fill="#E7402C" opacity="1.000000" stroke="none" 
	d="
M272.996887,291.052643 
	C278.457336,291.052643 283.418671,291.052643 288.653198,291.052643 
	C288.653198,322.056396 288.653198,352.637665 288.653198,383.615784 
	C267.712769,383.615784 246.665497,383.615784 225.248322,383.615784 
	C225.248322,353.076874 225.248322,322.375580 225.248322,291.052643 
	C240.972366,291.052643 256.735077,291.052643 272.996887,291.052643 
M283.039703,340.544922 
	C283.035492,338.397827 283.154999,336.239258 282.958191,334.109985 
	C282.891724,333.390717 282.023865,332.745483 281.522247,332.066437 
	C280.985260,332.709045 279.998444,333.340668 279.982422,333.995972 
	C279.853638,339.278046 279.836426,344.566559 279.984283,349.847565 
	C280.005890,350.618958 281.080505,351.360840 281.667847,352.116394 
	C282.121796,351.392700 282.925049,350.688843 282.967407,349.941833 
	C283.126221,347.142883 283.036346,344.329865 283.039703,340.544922 
z"/>
<path fill="#E7422F" opacity="1.000000" stroke="none" 
	d="
M255.171265,228.917267 
	C255.094391,230.855286 255.017502,232.301804 254.931107,233.927307 
	C246.714340,233.927307 238.823807,233.927307 230.645462,233.927307 
	C230.645462,226.323227 230.645462,218.938034 230.645462,211.264130 
	C238.690735,211.264130 246.574524,211.264130 255.171280,211.264130 
	C255.171280,216.966461 255.171280,222.696121 255.171265,228.917267 
z"/>
<path fill="#E7412D" opacity="1.000000" stroke="none" 
	d="
M259.230164,232.654694 
	C259.176880,225.395096 259.176880,218.606400 259.176880,211.399979 
	C267.025085,211.399979 274.709564,211.399979 282.777313,211.399979 
	C282.777313,218.569687 282.777313,225.941483 282.777313,234.523224 
	C275.064270,234.064377 267.173859,233.594986 259.230164,232.654694 
z"/>
<path fill="#E84835" opacity="1.000000" stroke="none" 
	d="
M250.824936,238.109833 
	C253.790741,237.840546 255.367828,238.285049 255.248505,241.455048 
	C255.030792,247.238342 255.186630,253.035690 255.186630,259.233154 
	C246.907959,259.233154 238.929764,259.233154 230.639374,259.233154 
	C230.639374,252.319458 230.639374,245.599152 230.639374,238.109680 
	C237.239563,238.109680 243.792068,238.109680 250.824936,238.109833 
z"/>
<path fill="#E84734" opacity="1.000000" stroke="none" 
	d="
M259.138367,248.995880 
	C259.138397,245.230942 259.138397,241.955490 259.138397,238.404907 
	C267.316742,238.404907 274.998077,238.404907 282.926453,238.404907 
	C282.926453,245.393539 282.926453,252.129669 282.926453,259.252869 
	C275.186615,259.252869 267.510345,259.252869 259.138336,259.252869 
	C259.138336,255.979172 259.138336,252.732269 259.138367,248.995880 
z"/>
<path fill="#FFFFFF" opacity="1.000000" stroke="none" 
	d="
M283.039703,341.033508 
	C283.036346,344.329865 283.126221,347.142883 282.967407,349.941833 
	C282.925049,350.688843 282.121796,351.392700 281.667847,352.116394 
	C281.080505,351.360840 280.005890,350.618958 279.984283,349.847565 
	C279.836426,344.566559 279.853638,339.278046 279.982422,333.995972 
	C279.998444,333.340668 280.985260,332.709045 281.522247,332.066437 
	C282.023865,332.745483 282.891724,333.390717 282.958191,334.109985 
	C283.154999,336.239258 283.035492,338.397827 283.039703,341.033508 
z"/>
</svg>